<svg width="93" height="25" viewBox="0 0 93 25" fill="none" xmlns="http://www.w3.org/2000/svg">
<g id="Group">
<path id="Vector" d="M8.75527 15.5291V13.4954H24.0069C23.5231 19.5393 18.39 24.2218 12.1254 24.2218C5.86074 24.2218 0.0634766 19.3014 0.0634766 12.5851C0.0634766 5.86876 5.49995 0.948364 12.0926 0.948364C17.1355 0.948364 21.4158 4.17122 22.7277 7.32848H20.112C18.5622 4.68787 15.3397 2.98213 12.1254 2.98213C6.83651 2.98213 2.31022 7.23827 2.31022 12.6097C2.31022 17.9811 6.86931 22.1799 12.2156 22.1799C16.2827 22.1799 20.2678 19.4162 21.301 15.5291H8.75527Z" fill="black"/>
<path id="Vector_2" d="M49.705 23.8282V14.0776C49.705 10.9203 48.188 8.69795 45.1787 8.69795C42.1693 8.69795 40.6524 10.8875 40.6524 14.135V23.8282H38.5286V14.1022C38.5286 10.8547 36.9461 8.69795 34.0023 8.69795C31.0586 8.69795 29.476 10.8547 29.476 14.1022V23.8282H27.3523V7.20542H29.476V9.11618C30.4764 7.53345 32.182 6.77899 34.0023 6.77899C36.4049 6.77899 38.4056 7.90248 39.5946 9.96905C40.8984 7.93528 42.7515 6.77899 45.1869 6.77899C49.4672 6.77899 51.8369 9.93625 51.8369 13.8562V23.82H49.7132L49.705 23.8282Z" fill="black"/>
<path id="Vector_3" d="M55.9041 23.8282V1.34198H58.0278V10.1249H58.0852C59.5119 8.09112 61.8817 6.77902 64.5548 6.77902C69.4173 6.77902 73.4844 10.4857 73.4844 15.4717C73.4844 20.4577 69.5977 24.2218 64.5548 24.2218C61.9719 24.2218 59.5693 23.0655 58.0852 20.9088H58.0278V23.8282H55.9041ZM64.5302 8.69797C60.8813 8.69797 57.9048 11.765 57.9048 15.5373C57.9048 19.3096 60.8239 22.3111 64.5548 22.3111C68.5072 22.3111 71.3607 19.367 71.3607 15.5701C71.3607 11.7732 68.4743 8.70617 64.522 8.70617L64.5302 8.69797Z" fill="black"/>
<path id="Vector_4" d="M90.7533 23.8282V13.2821H79.1177V23.8282H76.871V1.34198H79.1177V11.2484H90.7533V1.34198H93V23.8282H90.7533Z" fill="black"/>
</g>
</svg>
