<svg width="180" height="38" viewBox="0 0 180 38" fill="none" xmlns="http://www.w3.org/2000/svg">
<g id="Group">
<path id="Vector" d="M0.354553 36.3496V0.578308H11.8097C14.368 0.578308 16.254 0.72592 17.5168 1.01294C21.5757 1.93142 24.9622 5.07227 24.9622 9.91066C24.9622 12.9531 23.5108 15.6593 20.8049 17.16C24.7162 18.5132 26.7005 21.367 26.7005 25.4755C26.7005 28.9116 25.2492 32.0524 22.5432 33.9386C19.7389 35.9232 17.9021 36.3578 12.2443 36.3578H0.354553V36.3496ZM12.7281 14.1586C14.9994 14.1586 16.2048 13.1909 16.2048 11.3048C16.2048 9.41862 15.0486 8.59855 12.7691 8.59855H9.09555V14.1586H12.7199H12.7281ZM13.794 28.3211C16.3524 28.3211 17.9513 27.2059 17.9513 24.8851C17.9513 22.8103 16.5492 21.7934 13.8432 21.7934H9.10375V28.3211H13.794Z" fill="black"/>
<path id="Vector_2" d="M44.486 37.1697C36.319 37.1697 30.038 31.1258 30.038 22.9087C30.038 14.6917 36.4666 8.64777 44.486 8.64777C52.5054 8.64777 58.9341 14.6917 58.9341 22.8103C58.9341 30.929 52.5546 37.1697 44.486 37.1697ZM50.9147 22.9087C50.9147 19.3332 48.2087 16.1432 44.4368 16.1432C40.9109 16.1432 38.0574 19.2348 38.0574 22.9087C38.0574 26.5826 40.8617 29.6743 44.486 29.6743C48.1103 29.6743 50.9147 26.4842 50.9147 22.9087Z" fill="black"/>
<path id="Vector_3" d="M83.7795 36.3496L74.0135 20.8831H73.9151V36.3496H64.7805V0.578308H73.9151V16.6762H74.0135L84.1157 0.578308H93.6849L81.8443 18.4147L94.4556 36.3496H83.7713H83.7795Z" fill="black"/>
<path id="Vector_4" d="M115.628 36.3496V33.4466H115.529C114.365 35.8166 111.175 37.2681 107.649 37.2681C99.72 37.2681 94.2097 31.0356 94.2097 22.9087C94.2097 14.7819 99.9578 8.59857 107.649 8.59857C110.937 8.59857 113.979 9.90248 115.529 12.3709H115.628V9.51705H123.655V36.3414H115.628V36.3496ZM115.628 22.9087C115.628 19.1364 112.585 16.094 108.814 16.094C105.042 16.094 102.237 19.1364 102.237 23.0071C102.237 26.8778 105.189 29.7727 108.904 29.7727C112.618 29.7727 115.619 26.7794 115.619 22.9087H115.628Z" fill="black"/>
<path id="Vector_5" d="M134.135 36.3496V8.59855H127.075V0.578308H150.272V8.59855H143.261V36.3414H134.126L134.135 36.3496Z" fill="black"/>
<path id="Vector_6" d="M171.403 36.3496V33.4466H171.304C170.14 35.8166 166.95 37.2681 163.424 37.2681C155.495 37.2681 149.985 31.0356 149.985 22.9087C149.985 14.7819 155.733 8.59857 163.424 8.59857C166.712 8.59857 169.755 9.90248 171.304 12.3709H171.403V9.51705H179.43V36.3414H171.403V36.3496ZM171.403 22.9087C171.403 19.1364 168.361 16.094 164.589 16.094C160.817 16.094 158.012 19.1364 158.012 23.0071C158.012 26.8778 160.964 29.7727 164.679 29.7727C168.393 29.7727 171.395 26.7794 171.395 22.9087H171.403Z" fill="black"/>
</g>
</svg>
