<svg width="92" height="86" viewBox="0 0 92 86" fill="none" xmlns="http://www.w3.org/2000/svg">
<g id="Logo">
<path id="Vector" d="M13.5719 37.5787C16.0324 26.2566 23.0866 16.1848 33.8613 10.4791C53.7836 -0.0590678 78.8551 8.24644 89.858 29.0449C90.3045 29.8884 90.7113 30.7418 91.0982 31.5951C90.3541 28.1916 89.1536 24.8475 87.457 21.6424C76.4442 0.843921 48.9617 -6.18153 26.0729 5.93439C23.414 7.34345 20.9435 8.95097 18.6517 10.7272C13.9687 18.8144 12.0638 28.261 13.5818 37.5787H13.5719Z" fill="#1D96D1"/>
<path id="Vector_2" d="M4.55336 65.5515C9.68275 75.2462 18.4037 81.9541 28.5633 85.1196C38.1871 86.9355 48.6245 85.4669 58.0003 80.1978C64.8262 76.3576 70.2235 70.9992 73.9837 64.8271C55.4703 79.0467 29.4265 76.3576 15.6158 58.7245C6.64679 47.2635 5.03951 32.3096 10.0102 19.2411C-0.615725 32.6569 -3.34413 50.6274 4.55336 65.5515Z" fill="url(#paint0_linear_5_267)"/>
<path id="Vector_3" d="M82.278 36.388V29.184L75.5414 29.4122L63.6951 18.4969L32.5616 45.6362H42.3342C42.3342 45.6362 43.118 63.8548 24.7038 67.1393C39.0502 76.7347 58.9328 76.3279 73.9043 64.8768C77.1387 60.4016 79.4504 54.17 80.3235 45.6461H89.61L82.2681 36.388H82.278ZM58.149 52.5227H52.4244L53.7538 46.7972H59.4785L58.149 52.5227ZM54.4583 45.3286L55.7877 39.6031H61.5124L60.1829 45.3286H54.4583ZM66.0068 52.5227H60.2822L61.6116 46.7972H67.3363L66.0068 52.5227ZM68.0407 45.3286H62.3161L63.6455 39.6031H69.3702L68.0407 45.3286Z" fill="url(#paint1_linear_5_267)"/>
</g>
<defs>
<linearGradient id="paint0_linear_5_267" x1="-0.000594422" y1="52.5425" x2="73.9937" y2="52.5425" gradientUnits="userSpaceOnUse">
<stop stop-color="#6C973F"/>
<stop offset="0.27" stop-color="#709A3E"/>
<stop offset="0.55" stop-color="#7CA33E"/>
<stop offset="0.83" stop-color="#90B13C"/>
<stop offset="0.99" stop-color="#A0BD3C"/>
</linearGradient>
<linearGradient id="paint1_linear_5_267" x1="66.5724" y1="39.4939" x2="36.8127" y2="74.6664" gradientUnits="userSpaceOnUse">
<stop stop-color="#1D96D1"/>
<stop offset="0.31" stop-color="#1C91CE"/>
<stop offset="0.63" stop-color="#1A85C5"/>
<stop offset="0.95" stop-color="#1871B6"/>
<stop offset="1" stop-color="#186DB4"/>
</linearGradient>
</defs>
</svg>
