<svg width="22" height="89" viewBox="0 0 22 89" fill="none" xmlns="http://www.w3.org/2000/svg">
<g id="Group 32">
<g id="&#240;&#159;&#166;&#134; icon &#34;Facebook&#34;">
<path id="Vector" d="M18.307 7.57561C18.307 3.39069 14.9163 0 10.7314 0C6.54646 0 3.15576 3.39069 3.15576 7.57561C3.15576 11.3567 5.92605 14.4908 9.54768 15.0596V9.76551H7.62323V7.57561H9.54768V5.90653C9.54768 4.00805 10.6779 2.95937 12.409 2.95937C13.238 2.95937 14.105 3.10722 14.105 3.10722V4.97058H13.1495C12.2086 4.97058 11.9151 5.55463 11.9151 6.15365V7.57561H14.0161L13.6801 9.76551H11.9151V15.0596C15.5367 14.4908 18.307 11.3567 18.307 7.57561Z" fill="#898989"/>
</g>
<g id="&#240;&#159;&#166;&#134; icon &#34;Instagram&#34;">
<path id="Vector_2" d="M10.515 40.255C8.36531 40.255 6.63133 41.9889 6.63133 44.1387C6.63133 46.2884 8.36531 48.0224 10.515 48.0224C12.6648 48.0224 14.3988 46.2884 14.3988 44.1387C14.3988 41.9889 12.6648 40.255 10.515 40.255ZM10.515 46.6636C9.12583 46.6636 7.99012 45.5313 7.99012 44.1387C7.99012 42.7461 9.12245 41.6138 10.515 41.6138C11.9076 41.6138 13.04 42.7461 13.04 44.1387C13.04 45.5313 11.9043 46.6636 10.515 46.6636ZM15.4635 40.0961C15.4635 40.5997 15.0579 41.002 14.5576 41.002C14.054 41.002 13.6518 40.5963 13.6518 40.0961C13.6518 39.5958 14.0574 39.1902 14.5576 39.1902C15.0579 39.1902 15.4635 39.5958 15.4635 40.0961ZM18.0357 41.0155C17.9783 39.802 17.7011 38.7272 16.8121 37.8416C15.9266 36.956 14.8517 36.6788 13.6382 36.618C12.3876 36.547 8.6391 36.547 7.38847 36.618C6.1784 36.6755 5.10353 36.9526 4.21457 37.8382C3.32561 38.7238 3.05182 39.7987 2.99098 41.0121C2.92 42.2627 2.92 46.0112 2.99098 47.2619C3.04844 48.4753 3.32561 49.5502 4.21457 50.4358C5.10353 51.3213 6.17502 51.5985 7.38847 51.6594C8.6391 51.7303 12.3876 51.7303 13.6382 51.6594C14.8517 51.6019 15.9266 51.3247 16.8121 50.4358C17.6977 49.5502 17.9749 48.4753 18.0357 47.2619C18.1067 46.0112 18.1067 42.2661 18.0357 41.0155ZM16.42 48.6038C16.1564 49.2663 15.646 49.7766 14.9801 50.0437C13.983 50.4391 11.6169 50.3479 10.515 50.3479C9.41313 50.3479 7.0437 50.4358 6.04995 50.0437C5.38746 49.78 4.87707 49.2696 4.61004 48.6038C4.21457 47.6066 4.30583 45.2406 4.30583 44.1387C4.30583 43.0368 4.21795 40.6673 4.61004 39.6736C4.87369 39.0111 5.38408 38.5007 6.04995 38.2337C7.04708 37.8382 9.41313 37.9295 10.515 37.9295C11.6169 37.9295 13.9864 37.8416 14.9801 38.2337C15.6426 38.4973 16.153 39.0077 16.42 39.6736C16.8155 40.6707 16.7242 43.0368 16.7242 44.1387C16.7242 45.2406 16.8155 47.61 16.42 48.6038Z" fill="#898989"/>
</g>
<path id="Vector_3" d="M21.1991 75.379C20.9501 74.4426 20.2164 73.7051 19.2849 73.4548C17.5964 73 10.8258 73 10.8258 73C10.8258 73 4.05518 73 2.36665 73.4548C1.43511 73.7051 0.701441 74.4426 0.45243 75.379C0 77.0764 0 80.6177 0 80.6177C0 80.6177 0 84.1591 0.45243 85.8564C0.701441 86.7929 1.43511 87.4997 2.36665 87.7499C4.05518 88.2047 10.8258 88.2047 10.8258 88.2047C10.8258 88.2047 17.5964 88.2047 19.2849 87.7499C20.2164 87.4997 20.9501 86.7929 21.1991 85.8564C21.6515 84.1591 21.6515 80.6177 21.6515 80.6177C21.6515 80.6177 21.6515 77.0764 21.1991 75.379ZM8.61139 83.833V77.4024L14.2703 80.6178L8.61139 83.833Z" fill="#898989"/>
</g>
</svg>
