<svg width="74" height="74" viewBox="0 0 74 74" fill="none" xmlns="http://www.w3.org/2000/svg">
<path id="Vector" d="M74 36.8125C74 57.1484 57.4097 73.625 36.9403 73.625C19.9621 73.625 5.66935 62.2992 1.28306 46.8469L15.4863 52.6805C16.4411 57.4453 20.6931 61.0523 25.7657 61.0523C31.6141 61.0523 36.4927 56.243 36.2391 50.1422L48.846 41.2062C56.619 41.3992 63.1387 35.1352 63.1387 27.3273C63.1387 19.668 56.8726 13.4484 49.1593 13.4484C41.446 13.4484 35.1798 19.6828 35.1798 27.3273V27.5055L26.3476 40.2266C24.0351 40.093 21.7673 40.7313 19.8577 42.0227L0 33.8586C1.52177 14.9031 17.4706 0 36.9403 0C57.4097 0 74 16.4766 74 36.8125ZM23.2294 55.857L18.679 53.9867C19.5152 55.7143 20.959 57.0768 22.7371 57.8164C26.7504 59.4789 31.3605 57.5789 33.0315 53.6008C33.8371 51.6711 33.852 49.5484 33.0464 47.6187C32.2407 45.6891 30.7339 44.175 28.7944 43.3734C26.8698 42.5719 24.8109 42.6016 22.9907 43.2844L27.6903 45.2141C30.6444 46.4313 32.0468 49.8008 30.8085 52.7398C29.5702 55.6937 26.1835 57.0742 23.2294 55.857ZM49.1593 36.575C44.027 36.575 39.8496 32.4188 39.8496 27.3273C39.8496 22.2359 44.027 18.0797 49.1593 18.0797C54.2915 18.0797 58.469 22.2359 58.469 27.3273C58.469 32.4188 54.3065 36.575 49.1593 36.575ZM49.1742 34.2594C53.0383 34.2594 56.1714 31.1422 56.1714 27.3125C56.1714 23.468 53.0383 20.3656 49.1742 20.3656C45.3101 20.3656 42.177 23.4828 42.177 27.3125C42.1919 31.1422 45.325 34.2594 49.1742 34.2594Z" fill="#0A0A0A"/>
</svg>
