<svg width="79" height="76" viewBox="0 0 79 76" fill="none" xmlns="http://www.w3.org/2000/svg">
<path id="Vector" d="M14.7051 61.4998C14.8684 62.3459 14.3637 63.1475 13.5176 63.3256C12.716 63.4889 11.8996 62.9842 11.7363 62.1381C11.5731 61.3365 12.0777 60.4904 12.8793 60.3123C13.6809 60.1342 14.527 60.6537 14.7051 61.4998ZM35.9465 72.0983C35.0113 72.7811 34.759 74.0873 35.3973 75.067C36.0801 76.0467 37.3863 76.299 38.366 75.6162C39.3012 74.9334 39.5535 73.6272 38.8707 72.6475C38.2473 71.6826 36.9262 71.4154 35.9465 72.0983ZM23.1809 3.4756C24.116 3.26779 24.7098 2.33264 24.502 1.39748C24.3387 0.417792 23.4035 -0.175958 22.4684 0.0466983C21.5332 0.254511 20.9395 1.18967 21.1176 2.12482C21.3254 3.10451 22.2457 3.69826 23.1809 3.4756ZM5.11603 33.5936C3.63165 32.5694 1.59806 32.9553 0.573838 34.4842C-0.450381 35.9686 -0.0644433 38.0467 1.41993 39.0709C2.90431 40.1248 4.9379 39.7537 5.96212 38.2248C6.98634 36.6811 6.6004 34.6475 5.11603 33.5936ZM45.491 8.22561C47.0645 7.29045 47.5246 5.25685 46.634 3.72795C45.6988 2.15451 43.7098 1.64982 42.1809 2.58498C40.652 3.52014 40.1473 5.55373 41.0824 7.12717C41.9731 8.65607 43.9621 9.16076 45.491 8.22561ZM17.1246 16.835C18.2676 16.0334 18.5199 14.46 17.7629 13.317C17.0059 12.174 15.4324 11.9217 14.334 12.6787C13.191 13.4803 12.9387 15.0537 13.6957 16.1967C14.4527 17.3545 16.0113 17.6069 17.1246 16.835ZM72.3879 39.9912C71.2895 40.2436 70.5621 41.342 70.8145 42.4998C71.0223 43.5983 72.1355 44.3256 73.234 44.0733C74.3324 43.8654 75.0598 42.7522 74.8074 41.6092C74.5848 40.5108 73.4863 39.7834 72.3879 39.9912ZM78.2809 31.56C78.1176 30.7139 77.3012 30.2092 76.4996 30.3725C75.6535 30.5358 75.1488 31.3967 75.3121 32.2428C75.4754 33.0444 76.2918 33.5936 77.1379 33.4303C77.9394 33.2076 78.4887 32.4061 78.2809 31.56ZM66.3613 20.6201C65.0848 21.5108 64.7879 23.2475 65.634 24.524C66.4801 25.8006 68.2168 26.0975 69.4934 25.2514C70.7254 24.3608 71.0223 22.624 70.1762 21.3475C69.3301 20.0561 67.5934 19.7295 66.3613 20.6201ZM65.4262 41.3123C69.3301 47.71 67.6676 56.1561 61.5223 60.4756C58.9395 62.3014 56.0152 63.1029 53.0762 63.0139C51.2949 70.0053 42.7746 72.603 37.4754 67.853C37.3121 67.9865 37.0895 68.1053 36.9262 68.2834C31.1223 72.3061 23.2254 70.8662 19.2027 64.9733C17.7629 62.8506 17.0356 60.4311 16.9613 58.0115C7.25352 56.3936 3.60196 44.0584 10.8606 37.2748C6.65977 30.3131 10.9496 21.3326 18.7871 20.2194C22.5129 10.3928 34.759 5.73185 43.0715 12.174C53.0762 8.86389 63.3035 16.5381 62.502 27.1811C68.6027 29.0514 70.3395 37.1115 65.4262 41.3123ZM55.0356 52.3412C54.5754 49.2834 48.9645 51.6584 48.6379 48.3186C48.1777 43.5686 55.1246 33.3115 54.5754 29.3186C54.0707 25.7561 51.6957 24.999 49.6176 24.9545C47.6285 24.91 47.109 25.2514 46.441 25.6373C46.0106 25.8897 45.4613 26.3647 44.7043 25.5928C43.7691 24.7022 43.0566 23.8561 41.8246 23.6779C39.9988 23.3811 39.1973 23.9748 37.8762 25.1178C37.3715 25.5483 36.0949 27.0326 34.9074 26.4686C34.4027 26.2162 32.6215 25.3256 31.3449 24.7764C28.9254 23.7225 25.4074 25.4592 24.1309 27.7451C22.216 31.1444 18.4902 44.5334 17.941 46.3147C16.6645 50.2631 19.559 53.5287 23.4184 53.3061C25.066 53.217 26.1348 52.6233 27.1887 50.7233C27.7824 49.6248 33.3785 34.7365 33.809 34.0092C34.1059 33.5045 35.1301 32.8217 35.9762 33.2522C36.8223 33.7123 37.0004 34.6475 36.8668 35.4936C36.7035 36.9334 32.7106 46.0178 32.577 47.0272C32.0723 50.4264 36.5699 50.9756 38.3066 47.6209C38.8559 46.567 45.0902 33.8756 45.6395 33.0295C46.2777 32.0944 46.7379 31.7975 47.3762 31.842C47.8363 31.842 48.6082 31.9756 48.4301 33.46C48.2223 34.8553 43.2199 44.192 42.6559 46.4779C41.973 49.5358 43.6356 52.6233 46.352 53.9889C48.0441 54.835 55.6293 56.3194 55.0356 52.3412ZM55.8816 66.042C54.3527 67.1404 53.9668 69.3076 55.0356 70.8811C56.0895 72.4545 58.2121 72.8256 59.7856 71.7717C61.359 70.6733 61.7301 68.5061 60.6762 66.9326C59.5777 65.3592 57.4551 64.9287 55.8816 66.042Z" fill="#0A0A0A"/>
</svg>
