<svg width="96" height="57" viewBox="0 0 96 57" fill="none" xmlns="http://www.w3.org/2000/svg">
<path id="Vector" d="M32.8792 41.3577C32.5942 41.5625 31.2187 42.6105 32.8402 44.8563C33.5362 45.8093 34.9567 46.7548 36.0997 45.8286C37.0747 45.1042 37.2022 43.9108 36.1387 42.4086C35.3182 41.2567 33.9967 40.4967 32.8792 41.3577ZM83.3917 52.63C83.3407 52.8823 83.3092 52.8779 83.5102 52.63C83.8237 52.008 84.1387 51.1144 84.2572 49.6761C84.7282 43.9627 78.2077 39.0643 69.0562 38.0935C60.8467 37.1999 50.3992 39.4547 40.7362 47.0725L40.6972 47.3055C41.0902 48.0448 41.4442 48.8998 41.2072 50.4539L41.3257 50.4925C50.9092 41.8237 61.0042 39.0257 68.9782 39.5304C77.7382 40.0752 83.9827 44.5832 83.9827 49.636C83.9812 51.1144 83.5882 51.9694 83.3917 52.63ZM58.8427 25.7316C58.9612 26.7811 59.4712 27.2472 60.2182 27.2858C61.0432 27.3244 61.6327 26.8969 61.7887 26.3135C61.9072 25.8088 62.1022 21.8827 62.1022 21.8827C62.1022 21.8827 60.4132 22.8549 59.8627 23.4368C59.3137 23.983 58.7632 24.6822 58.8427 25.7316ZM51.3397 3.30273C20.6632 3.30273 1.96571 23.7099 0.11921 25.8474C-0.0382904 25.9246 -0.0772904 25.9647 0.23771 26.0419C9.31121 28.4911 23.6092 38.092 29.6572 56.05L29.8147 56.0886C38.1022 45.7098 50.9467 37.0812 65.3632 37.0812C77.5012 37.0812 84.8857 43.3393 84.8857 49.0141C84.8857 51.7349 83.9032 53.9897 81.5467 55.8941C81.5467 56.0366 81.5167 56.0114 81.6652 56.0114C83.8642 54.4172 85.7902 51.7364 85.7902 48.8597C85.7902 45.4783 83.9827 43.1849 83.9827 43.1849C85.0432 44.2344 85.5937 45.5955 85.5937 45.5955C86.4577 39.5319 89.6392 36.3449 89.6392 36.3449C89.2852 34.9066 88.6177 33.7012 88.6177 33.7012C89.7562 34.9066 90.7777 37.7833 90.7777 39.8421C90.7777 41.3962 90.2677 43.2235 88.8922 44.5847L88.9312 44.6619C90.1492 43.9227 91.4062 42.1741 91.4062 39.0257C91.4062 36.6937 90.6997 35.1782 90.6997 35.1782C91.5637 34.4004 92.3887 33.817 93.0952 33.4296C93.2137 33.9343 93.4087 34.868 93.4492 35.6458C93.4492 35.8016 93.5677 35.9174 93.6067 35.6458C93.7252 34.7908 93.5677 33.2351 93.5677 33.1966C94.4707 32.7305 95.0212 32.536 95.0212 32.536C92.6617 16.1693 73.4152 3.30273 51.3397 3.30273ZM36.4537 46.2932C34.7947 47.6277 32.8237 46.8988 31.8577 45.6712C30.7402 44.2492 30.8437 42.0954 32.4862 40.8515C34.7137 39.1667 36.5482 40.7787 37.1602 41.6679C37.2022 41.7258 38.9797 44.1275 36.4537 46.2932ZM36.7672 26.0419L38.1817 23.3982L39.9487 33.9313L38.0632 34.8249L34.3702 30.5499L36.4912 26.5852L37.0417 27.2457L36.7672 26.0419ZM39.5557 43.4952L39.5167 43.4566C39.8242 42.848 39.1417 42.4754 36.8857 38.7526C36.6892 38.4023 36.4147 38.3251 36.2182 38.3637L36.1792 38.2865C37.3582 37.4315 38.4967 36.7709 39.9892 35.9545L40.0672 35.9931C40.2637 36.2648 40.3807 36.4206 40.5772 36.6923L40.5382 36.7694C40.3807 36.7309 40.1842 36.6522 39.7522 36.808C39.4387 36.9253 38.5732 37.3528 37.9057 37.9347V38.1291C38.1412 38.4795 38.4952 39.1014 38.7697 39.5675H38.8087C40.3162 38.6353 39.9427 38.8921 40.5367 38.4008H40.5757C40.6537 38.6724 40.6537 38.6724 40.8502 39.2172L40.8112 39.2558C40.3522 39.3463 40.1137 39.3062 39.0832 40.0722V40.1108C40.5022 42.6372 40.7347 42.5971 40.9687 42.4813L41.0077 42.5199C40.6567 42.7559 40.0672 43.1448 39.5557 43.4952ZM47.8447 38.6754C47.3737 38.9084 46.9417 39.1029 46.3522 39.4146L46.3132 39.376C46.5067 38.9916 46.4872 38.9737 44.5462 34.5562L44.5072 34.5177C44.4847 34.5177 43.1722 35.0594 43.0147 35.6057H42.9367L42.7792 34.7507L42.8182 34.6735C43.9117 33.9966 46.6477 32.9457 46.9822 32.8077L47.0602 32.8462L47.5312 33.5855L47.4922 33.6627C46.9627 33.4014 46.3897 33.7755 45.6457 34.0516V34.0902C47.4922 38.8416 47.5462 38.6383 47.8447 38.6383V38.6754ZM54.5602 36.2262C53.9317 36.382 53.7742 36.4206 53.1067 36.6537L53.0677 36.6151L53.1457 35.9545C52.9882 35.4498 52.6747 34.2445 52.5952 33.9328L52.5562 33.8942C52.0462 34.0115 51.2212 34.2831 50.6317 34.4776L50.5927 34.5162C50.7112 34.9051 51.0637 35.9931 51.2212 36.5765C51.3397 36.9268 51.4957 37.004 51.6532 37.0426V37.1198C51.1027 37.2756 50.5927 37.5087 50.1217 37.7031L50.0827 37.6645C50.2402 37.4701 50.2402 37.237 50.1217 36.9253C49.9642 36.4592 48.9037 33.388 48.7462 32.8834C48.6682 32.6117 48.5107 32.4173 48.3532 32.4173V32.3401C48.8242 32.1842 49.2562 32.0298 49.9642 31.8354L50.0032 31.874L49.9642 32.5731C50.1607 33.1565 50.3182 33.6998 50.4352 34.0115H50.4742C51.0637 33.817 51.8887 33.584 52.3987 33.4281L52.4377 33.3895L52.0447 31.9898C51.9667 31.7181 51.8872 31.4851 51.6517 31.4064V31.3678C52.3192 31.212 52.7512 31.0962 53.2627 31.0175L53.3017 31.0561C53.1442 31.2505 53.1442 31.4836 53.2237 31.7166C53.4592 32.6488 53.9302 34.7492 54.1657 35.6428C54.2467 36.0317 54.4432 36.149 54.5602 36.2262ZM59.3917 35.2153L59.3527 35.2539C58.6462 35.3311 57.2317 35.6042 55.9747 35.8759L55.9357 35.8373L56.0542 35.2153C55.8187 34.0486 55.5442 32.4559 55.3072 31.3277C55.2682 31.0561 55.1887 30.9002 54.9142 30.783L55.0327 30.7058C56.4082 30.4727 58.0567 30.3555 58.7647 30.3169L58.8037 30.3555C58.8817 30.7058 58.9222 30.8216 59.0392 31.1719L59.0002 31.2105C58.8292 31.0412 58.4992 30.7355 56.5642 31.0932L56.5252 31.1318C56.5642 31.3648 56.6827 32.1041 56.7607 32.6087L56.7997 32.6473C58.2277 32.398 57.5137 32.6384 58.4107 32.297H58.4497C58.4497 32.5301 58.4107 32.5687 58.4107 33.0748H58.3717C57.6502 32.922 58.0492 32.9412 56.8402 33.0748L56.8012 33.1134C56.8402 33.4237 57.0367 34.5132 57.1147 34.9793L57.1537 35.0179C57.3262 35.0743 59.2852 34.9214 59.5897 34.3187H59.6287C59.5492 34.672 59.4712 34.9437 59.3917 35.2153ZM61.0027 28.6084C60.3352 28.9587 59.7847 29.0359 59.3527 29.0359C59.3152 29.0388 57.6412 29.1977 56.7217 27.5589C55.7107 25.9573 56.5747 23.8183 57.5467 22.8549C58.8667 21.6496 61.0492 21.3557 61.8277 20.3285C63.0322 18.7952 59.8717 17.0169 57.3892 19.4735L56.9962 19.046L57.7822 16.6354C61.6207 16.4023 64.5622 16.1841 65.2852 19.046C65.4037 19.5121 65.2852 20.4458 65.2462 20.8347C65.2462 21.2236 64.9717 23.6327 64.9327 24.2547C64.8547 24.8766 64.8142 26.9755 64.8142 27.3259C64.8532 27.6762 64.8922 27.9478 65.0497 28.1423C65.2852 28.4139 65.9137 28.4139 65.9137 28.4139L65.7952 29.113C64.0222 28.9542 64.2532 29.0255 62.7307 28.9572C62.2477 28.1927 62.3962 28.4703 62.1022 27.7905C62.1022 27.792 61.4737 28.3753 61.0027 28.6084ZM66.5797 31.7567C65.6272 30.1862 63.6067 30.6939 63.3202 32.5731C62.9257 35.1084 65.4652 35.5107 66.4237 34.0887L66.4627 34.1273C66.3847 34.3989 66.1882 35.0209 66.1882 35.0594L66.1102 35.1366C64.5652 36.1564 61.8352 34.7655 62.2612 32.3772C62.5522 30.7637 64.4272 29.5673 66.5812 30.9002L66.6202 30.9774C66.6202 31.1348 66.5797 31.4836 66.5797 31.7567ZM67.4452 18.7343V17.762C67.5487 17.762 70.3927 18.2489 71.6092 18.8501L71.3737 21.4537C71.3737 21.4537 72.9052 20.0539 73.6912 19.8595C74.4772 19.6264 75.9307 20.9475 75.9307 20.9475L74.2417 22.6189C72.4312 21.6763 71.3032 22.607 71.1382 22.7362C70.3447 28.4837 69.8482 28.9958 71.8057 29.5777L71.7277 30.2768C69.0952 29.64 68.9482 29.6088 66.1897 29.1887L66.3082 28.4896C67.3957 28.4896 67.4302 27.6999 67.4467 27.4787C67.4467 27.4787 68.1937 19.5878 68.1937 19.2776C68.1907 18.8516 67.4452 18.7343 67.4452 18.7343ZM69.0937 35.7215C67.8757 35.4112 66.9727 34.0887 67.4827 32.6503C67.9537 31.2505 69.3292 30.823 70.3102 31.1348C71.6857 31.5237 72.2347 32.8834 71.9212 34.0115C71.5297 35.3326 70.5082 36.0703 69.0937 35.7215ZM75.4177 37.1598C75.0637 37.0827 74.3572 36.8095 74.1217 36.7323V36.6937L74.3572 36.4221C74.4457 35.199 74.4457 35.343 74.3962 35.2955C73.6732 35.0268 73.3972 34.9451 73.3357 34.9451C73.1392 35.2168 72.9037 35.6057 72.7852 35.7616L72.6667 36.2662V36.3048C72.4702 36.2662 72.0772 36.1104 71.7637 36.0718V36.0332L72.1567 35.7616C72.6667 35.0624 73.6492 33.6627 74.2387 32.7691V32.4588L74.3167 32.4202C74.6302 32.5375 75.1417 32.7305 75.4552 32.8477C75.5272 32.919 75.4822 32.5702 75.2977 36.5794C75.2617 36.8481 75.3007 36.9654 75.4177 37.1598ZM74.7112 23.8272C76.3987 21.1152 79.3252 21.424 79.8172 23.3225L80.9557 19.4349C81.3067 18.5072 80.5327 17.9654 80.2882 17.7635L80.5627 17.2188C82.3957 18.758 83.0197 19.2924 83.9407 20.2513C80.0542 31.0977 79.3267 32.2466 80.2477 32.7676L79.9732 33.4281C79.0177 32.9309 78.6382 32.772 77.3017 32.1456L77.6152 31.1348C77.5762 31.0962 77.0257 31.7181 76.1617 31.6795C73.3027 31.4866 72.7282 26.9666 74.7112 23.8272ZM79.1107 35.6042C79.1107 34.7566 78.1597 34.433 77.9317 34.8264C77.7352 35.1366 78.0892 35.5656 78.3637 36.0703C78.5992 36.4592 78.7567 37.0025 78.5212 37.4701C78.1252 38.4112 76.6612 38.2583 76.2037 37.3528C76.2037 37.2489 76.1632 37.3662 76.4782 36.6537L76.5967 36.6151C76.5112 37.4552 77.5057 38.0416 77.8537 37.3543C78.0112 37.0441 77.7757 36.5379 77.5402 36.1104C77.3047 35.7215 76.9897 35.1782 77.2657 34.672C77.6737 33.9209 78.9532 34.0085 79.4647 35.0223V35.0995L79.1107 35.6042ZM82.2922 37.5873C81.9982 37.1019 82.1557 37.2697 81.6247 36.8882H81.5857C81.2317 37.5102 80.7217 38.4423 80.2897 39.2988C80.0932 39.6491 80.1322 39.8035 80.1712 39.8822L80.1322 39.9208L79.2682 39.2602L79.3072 39.2216L79.6207 39.0272C80.0917 38.1722 80.6032 37.2385 80.9962 36.5008V36.4622C80.6002 36.1683 80.8132 36.238 80.0932 36.1905V36.1519L80.5642 35.6473H80.6032C81.1537 35.9976 82.0957 36.6581 82.4497 36.9684L82.4887 37.007L82.2922 37.5873ZM86.3767 31.0175L85.9447 30.59C86.0632 30.2397 86.2192 29.8508 86.2582 29.4634C86.3707 28.0176 84.5302 27.7059 84.5302 28.7241C84.5302 29.4634 85.7092 31.6009 85.7092 32.8448C85.7092 34.3603 84.8452 35.1767 83.6272 35.294C82.3702 35.4112 80.6032 33.7398 80.6032 33.7398L81.3502 31.6023L81.7822 31.9126C81.3367 34.5548 84.4342 34.9362 83.7847 32.6904C83.6257 32.0937 80.9722 27.6138 84.0982 27.0156C86.1412 26.6653 87.5542 29.4648 87.5542 29.4648L86.3767 31.0175ZM91.7197 29.5019C90.0697 24.9924 82.6462 10.5717 62.9272 10.2615C54.9142 10.1056 48.7867 12.5548 43.0132 15.8977L55.8577 14.5365L42.1492 17.6077L45.9202 20.523L45.3307 18.0737C46.4557 17.8199 51.2032 16.8195 55.3462 16.7527L52.0072 28.6855C54.0487 28.5816 54.8527 27.3526 54.9532 25.3041L55.7002 25.1483L55.7392 29.113C52.3702 29.5895 50.1442 30.1061 48.3157 30.59L50.2792 24.176L41.0482 18.7343L41.4022 19.9396L42.9337 20.6788C43.8757 23.4383 45.8407 29.0744 45.9982 29.3862C46.2907 30.0215 46.4722 30.2441 47.8057 30.0467L47.9632 30.7859C45.5512 31.5073 44.4142 31.9155 42.1102 32.9234L41.7562 32.2243C42.4162 31.7879 43.0657 31.6394 42.5812 30.3198C39.0262 21.0425 39.3592 21.6897 39.1642 21.4967L39.5182 20.8362L44.5462 30.826C43.9702 29.0641 44.7982 31.0769 39.5977 19.1262L33.3127 32.2644L34.0192 30.2041L28.6372 23.9459L32.8012 37.8219L31.0342 39.0658C14.2507 23.9741 15.1582 24.4625 13.9852 24.4105C13.1602 24.372 11.9422 25.227 11.9422 25.227L11.1952 24.3334C15.7792 20.8406 15.9382 20.7219 19.9552 17.998L20.5837 19.0475C20.5837 19.0475 19.7197 19.6695 19.4047 20.097C18.5197 21.4745 19.6552 22.0682 28.6747 31.3307L25.8472 22.5848L31.8172 21.0692L35.6662 25.6173L36.3337 23.7901L35.5867 20.1355L37.5502 19.6309L37.6282 20.097L38.1787 18.5428L24.0382 22.8965L25.7272 22.1573L23.6842 15.8605L26.2762 14.4994L30.7927 19.8639L35.0737 17.9209C34.8622 16.812 34.7032 15.7685 34.3672 15.0055L36.9592 17.0659L37.6657 16.7556L28.7887 10.4203L32.2507 12.1273C35.0977 11.2263 36.0352 11.0185 37.0822 10.689L37.4752 12.3218C35.5927 14.1847 37.6897 14.8185 38.4577 15.1985L36.4147 6.14234L38.2222 10.3402C38.8507 10.1457 39.3217 10.0299 39.3217 10.0299L39.7147 11.3124C39.7147 11.3124 39.2437 11.4683 38.7727 11.6227L40.1077 14.7324L45.1747 4.97562L42.0712 14.0318C48.4342 10.4559 54.2872 8.59008 61.8682 8.70586C71.9242 8.86172 86.9677 14.7695 91.8382 29.4619C91.9552 29.7736 91.8367 29.8523 91.7197 29.5019ZM30.5227 12.6706C30.5227 12.6706 30.7972 12.5934 31.1512 12.4762L32.5657 13.6028C32.5057 13.6028 32.0497 13.5657 30.8767 13.9531L30.5227 12.6706ZM52.0867 18.3855C51.8512 18.2964 48.1177 17.6715 47.0977 21.4566L50.3572 23.983L52.0867 18.3855ZM47.7652 0C39.0052 0 31.8577 1.78867 30.5212 2.1375V2.25477C31.7782 2.565 32.6812 2.87672 33.7027 4.00336L33.9382 4.04195C34.9207 3.77031 41.2837 1.98164 50.4742 1.98164C77.4982 1.98164 95.7247 19.3177 95.7247 35.1381V36.6151C95.7247 36.8095 95.8432 37.004 95.8822 36.6923C95.9602 36.382 96.0007 35.4098 96.0007 33.7769C96.0397 21.3394 81.5062 0 47.7652 0ZM79.4242 25.1869C79.6207 24.3319 79.4242 23.3596 78.3247 23.2438C76.8817 23.0761 75.9037 26.7752 75.7717 28.2194C75.6532 29.0359 75.5752 30.4356 76.6747 30.4356C77.3767 30.4341 78.1327 30.3005 79.4242 25.1869ZM70.1947 31.5623C69.8017 31.445 68.7802 31.445 68.3092 33.1164C68.0347 34.1273 68.3872 35.098 69.2122 35.2925C69.7627 35.4484 70.5472 35.3697 70.9792 33.6983C71.3722 32.2228 70.7047 31.678 70.1947 31.5623ZM73.6507 34.672C73.9252 34.7492 74.1217 34.8279 74.5147 34.9437C74.5147 34.672 74.5927 33.6998 74.6332 33.155C74.4757 33.3494 73.8082 34.3603 73.6507 34.632V34.672Z" fill="#0A0A0A"/>
</svg>
