<svg width="73" height="74" viewBox="0 0 73 74" fill="none" xmlns="http://www.w3.org/2000/svg">
<path id="Vector" d="M70.0075 34.9332L73 35.9594C71.6122 32.5051 69.5449 30.6117 68.4173 29.4844L69.4437 26.8539C69.4726 26.8539 71.2218 22.8359 69.0823 22.4168C68.9955 20.7836 68.1281 18.5145 66.4222 18.5145C65.3235 16.9824 63.8634 16.7367 61.9841 17.6617C60.6709 18.3024 59.4424 19.1034 58.3265 20.0465C57.5603 19.1215 57.8928 20.1043 57.8928 15.7395C52.5294 12.2273 51.3295 14.0484 47.0793 16.173L47.1516 16.2453C43.9669 15.1258 40.6355 14.4781 37.2633 14.323C36.4682 13.0656 34.5743 11.5625 33.6347 10.6953L37.2199 11.7215C36.4248 10.9266 33.3455 9.85703 32.2757 9.52461C34.9068 8.93203 36.5838 6.51836 38.4198 4.75508C33.3744 3.29531 28.6038 3.90234 24.2668 6.46055L26.0016 0.0722656L25.737 0C21.1687 3.49766 20.9663 6.05586 20.8651 6.57617C20.735 6.2293 19.9544 3.74336 18.6677 2.67383C18.19 3.84138 18.1642 5.14495 18.5955 6.33047C19.0292 7.54453 19.4484 8.46953 19.8098 9.06211C17.4967 8.58516 15.7186 8.35391 12.6972 9.06211H12.1623L16.9329 11.1289C14.0149 13.8588 11.7132 17.1799 10.1817 20.8703L9.93594 22.0844L10.1817 22.3301L11.2804 21.6508C10.8033 23.3273 10.5142 24.4547 10.3263 25.3797C8.7533 27.1495 7.40356 29.1057 6.30733 31.2043C4.13884 31.3488 1.71013 32.7652 0.481321 33.2711L0.915019 33.7625L5.07852 33.907C5.00624 34.0516 4.97733 34.225 4.90504 34.3695C3.84971 35.2945 -0.848687 39.8184 0.134362 46.0332L3.0546 42.7957C3.12688 43.0414 3.15579 43.2871 3.22808 43.5473C3.22808 47.2328 3.2859 56.4973 12.6104 65.2992C18.9135 71.0805 26.4888 74 35.3796 74C52.9733 74 67.6178 61.3824 67.6178 43.4316C68.6009 42.0297 67.4443 43.8652 70.0321 39.8039L71.9114 41.8707L72.2728 41.7984C72.0055 40.1129 71.5746 38.4575 70.9862 36.8555C70.7686 36.1642 70.4363 35.5144 70.0032 34.9332H70.0075ZM56.9633 16.0719L56.891 19.2371C57.6861 21.8531 59.3342 21.723 60.1293 21.723L59.6378 21.0438L62.876 20.2633C61.576 20.3358 60.2728 20.3358 58.9728 20.2633C60.8232 19.9598 63.7868 16.0719 65.1891 18.6301C65.6806 19.7285 66.1143 21.116 66.5336 22.648L66.7793 21.7953C66.598 21.0776 66.5153 20.3385 66.5336 19.5984C67.3142 19.6707 67.8057 20.0898 67.878 21.0582C67.9503 21.9832 68.1238 23.1973 68.3695 24.7148L69.049 23.0816C69.714 23.0816 69.6996 22.5613 68.6876 26.0734C65.6662 24.816 63.6133 24.8594 61.9653 24.8594L64.5964 22.5469C60.9389 23.732 59.8257 24.1078 56.6742 25.5676C56.5151 24.7871 55.9513 23.6164 54.3611 22.6914C53.8985 23.2406 53.9563 22.8215 54.2599 24.8305H53.8985C53.7194 23.648 53.3066 22.5131 52.6841 21.4918L53.2913 21.0004C54.5057 19.9742 54.9972 18.9336 54.8237 17.8352C54.7514 16.9102 54.0431 15.884 52.8721 14.8434C53.6816 14.352 55.0695 14.7855 56.9633 16.0719ZM51.2385 14.6121C51.6288 14.8867 52.8865 15.3926 53.9708 17.098C54.5779 18.3121 54.549 18.5145 54.4623 18.7023C54.39 19.0492 54.39 19.3238 54.0286 19.7285C53.7828 20.0898 53.2479 20.4078 52.3227 20.827C51.224 18.948 49.9374 17.416 48.3038 16.3176L51.2385 14.6121ZM12.5815 20.6824L12.755 20.4367C12.9285 20.0176 13.3622 19.3383 14.0994 18.2398L14.4609 17.7484L12.5815 19.5262L13.3622 18.8469L11.902 20.191L11.2949 20.3645C13.073 16.8812 14.6343 14.3953 15.9933 13.109C17.3377 11.7648 18.3063 10.7965 18.9135 10.3051L17.9883 10.4785C16.3547 9.87148 15.1837 9.45234 14.403 9.26445C14.7644 9.19219 14.9379 9.19219 14.8656 9.19219C16.3547 9.19219 17.3956 9.26445 17.8871 9.36563C18.6347 9.60529 19.415 9.72719 20.2001 9.72695L20.2724 9.48125L19.0581 4.30703L21.0097 8.49844C21.417 7.86688 21.706 7.16656 21.8626 6.43164C22.1084 5.50664 22.6433 4.55273 23.3228 3.62773C24.0022 2.70273 24.4215 2.0957 24.6672 1.99453C24.2912 3.19531 23.9823 4.41608 23.742 5.65117L23.4962 6.67734L23.424 7.35664L23.7854 7.71797C26.9514 5.7668 30.3631 4.91406 34.0929 4.98633L37.1433 5.05859C35.4374 7.00977 33.1243 8.22383 30.1318 8.64297C29.0134 8.84866 27.8838 8.98861 26.749 9.06211L26.7201 8.98984L26.3586 8.81641C25.671 8.67285 24.9547 8.77515 24.3347 9.10547C23.9733 9.07656 23.6263 9.0332 23.3083 9.0043L22.9469 9.25L23.0192 9.42344C23.3083 9.45234 23.583 9.4957 23.9155 9.52461L23.6263 10.016L24.1179 9.94375L22.5855 11.577C21.9783 12.0105 21.8048 12.502 21.9783 12.9211L22.759 12.4297H22.9324C23.8208 11.2513 25.1321 10.4637 26.59 10.2328V9.79922C27.5152 9.87148 28.4693 9.94375 29.3945 9.97266C30.3198 9.97266 30.6089 10.0449 30.1752 10.1461C31.2141 10.7307 32.2137 11.3825 33.1677 12.0973C35.1194 13.557 36.5795 15.2625 37.5047 17.2137C38.7769 19.8441 39.4563 22.5758 39.4563 25.3941C39.45 26.7687 39.3047 28.1391 39.0226 29.4844C38.5123 31.7827 37.736 34.0139 36.7096 36.1328L37.071 36.2051C39.7021 33.3578 43.1283 33.8926 44.1836 33.8926L43.2584 34.7453L46.4967 37.3035L46.2509 41.7406C45.4703 39.9629 43.8656 38.691 41.4803 37.7227C43.8656 39.8617 44.892 40.7723 44.6463 40.6422C43.9523 40.2375 44.1403 40.3676 43.0849 40.1074C43.6777 40.7 45.6149 42.8246 45.716 43.0992L45.745 43.1281L45.716 43.157C45.716 43.4172 45.9474 42.9836 43.6921 46.4668C32.8208 44.2555 28.3291 40.2953 23.2794 37.3324L24.9853 37.5059C23.2794 34.832 22.73 34.9477 19.4339 33.7336L20.9663 32.5195C19.6942 32.0859 18.3352 32.0859 16.8751 32.5918L17.9738 31.0598L17.8003 30.8141C15.6463 31.4355 14.9379 32.1437 14.5331 32.4473C14.3741 31.6523 14.1284 30.6551 12.755 28.2848L12.5815 32.1871L10.6732 31.4645C10.8901 27.8223 11.4539 24.1656 12.5815 20.6824ZM52.554 68.3777C45.3402 71.991 44.4439 71.6152 44.0246 71.832C39.7166 70.1266 36.6662 67.2504 34.8447 63.3336L39.1817 65.7184C37.7649 64.3742 36.5361 63.3336 33.6303 59.3156L35.3362 62.6543L32.7774 61.5559C34.8302 64.6055 36.1747 69.0281 42.4055 72.1789C24.9419 75.6766 13.6368 61.7582 13.3622 61.4402C14.9666 62.7736 16.6783 63.9725 18.4798 65.0246C18.9713 65.2703 19.5062 65.3859 19.9399 65.1981L17.6269 62.2062C18.9569 62.8133 19.0002 62.8566 27.6164 66.3977C21.4723 63.4059 16.9474 60.5008 14.1428 57.6969C14.0705 58.6219 13.9693 59.1566 13.9693 59.1566C15.2278 60.2119 16.2478 61.5223 16.9619 63.0012C11.3238 60.2695 8.63485 56.1215 6.65429 51.0629C13.8681 59.0266 23.8432 56.4828 24.0745 56.425C29.1054 58.7953 34.1797 59.8359 40.5406 57.957C41.0176 57.957 43.4753 60.4141 44.1981 63.6082L44.8053 63.1746L44.4439 59.7637C45.745 61.0645 48.0436 63.0301 49.4169 61.6426C47.1617 60.8766 46.0196 60.2695 45.1522 57.0609C45.8172 57.668 46.2509 58.3617 49.1712 59.2289L49.3447 59.0555L47.8267 57.0031C49.5181 56.3094 47.3207 57.1477 52.4528 55.4422C53.0745 60.3996 53.7539 62.5531 52.554 68.3777ZM69.2225 37.3902L68.8611 37.4625L69.2948 38.8066C68.7888 39.6594 65.8686 45.2094 58.9438 50.3258C53.2335 54.6328 47.8701 55.977 47.2484 56.1504L46.1497 55.1242L45.9763 55.5578L48.0436 57.8703L47.0171 57.191L47.5087 57.798H47.3352L44.1692 55.8469L45.5137 59.6914L42.7669 55.659L42.5934 56.0203L43.6921 60.2117C42.8103 59.0266 40.6562 55.5 35.4808 54.4883L40.1792 57.5523C35.6745 58.2359 31.0745 57.9201 26.7056 56.6273C26.0984 56.4539 25.419 56.266 24.754 56.0203L24.9274 55.5867L18.4509 52.3492L22.2241 55.5867C13.8826 56.902 5.88809 51.9156 3.95091 43.5328L3.58949 41.1625L0.370005 44.3855C3.18904 36.075 4.0709 36.0172 7.8007 34.2539C6.48515 33.4879 7.5694 33.777 2.24936 32.9098C4.53351 32.0715 7.02004 30.684 12.8027 33.6613C12.9714 33.56 13.1508 33.4776 13.3376 33.4156C13.4243 32.9531 13.3954 33.3 13.4821 31.7102C14.046 33.1555 14.0026 32.9676 13.9158 33.0543L14.1616 33.1266C15.9976 32.1871 15.4482 32.4762 16.6192 31.8402L15.8386 33.7914L19.0624 32.9531L17.848 34.1672L18.2095 34.5285C18.86 34.2684 22.5898 35.0199 24.1078 36.841L20.696 36.4797C26.3919 39.8039 28.1411 44.2844 28.7628 46.5391L29.0085 46.3656C28.6038 43.1426 27.2159 41.466 26.6955 40.5699C27.3027 41.2926 32.3625 45.5707 42.6556 47.2184C41.022 47.1461 39.3161 47.9988 37.6102 49.95L44.3615 47.0305L43.017 50.1957C44.1157 48.7359 45.1566 46.7848 46.0818 44.4723V44.4L46.2553 43.9664L46.0818 46.2789C48.0334 40.2375 49.7393 34.9332 51.1994 30.4238L53.1511 26.4059V26.1168L52.3704 25.5098H53.8305L54.6835 26.1168L55.0449 25.9434L54.5534 23.6309L56.3315 26.3625L62.3744 23.443L60.2348 25.3219L60.3071 25.741L62.8659 25.6688C64.4712 25.7267 66.068 25.9298 67.6366 26.2758L64.2248 26.6371L64.0514 27.0707L67.8968 30.4094C69.3229 31.8411 70.6284 33.388 71.8001 35.0344C70.181 34.5574 70.3111 34.543 68.7353 34.543L70.5135 39.2402L69.2225 37.3902ZM68.3406 27.0852L67.7768 28.9641L65.7095 27.2586L68.3406 27.0852ZM31.5052 28.1113C31.751 29.6434 32.1847 30.6695 32.7774 31.2766C31.4329 32.2305 28.8018 33.2855 26.0551 33.5891L26.1273 33.7625C27.3338 33.9452 28.5669 33.8209 29.7126 33.4012L28.6862 35.2801C29.2933 35.0344 30.1463 34.2539 31.245 33.141C32.9653 32.3461 33.081 32.4039 34.1652 30.8285C32.3292 29.9035 31.8955 28.8484 31.5052 28.1113ZM32.0401 13.3258C31.1149 12.8344 30.5077 13.7594 30.2619 16.0574C30.0162 18.3555 30.6233 20.3211 31.9678 21.7809C33.3123 23.2406 34.5989 23.3129 35.741 22.2145C36.8831 21.116 36.2325 18.8035 34.1074 15.3203C33.6004 14.491 32.8904 13.8046 32.0444 13.3258H32.0401ZM31.3606 20.0176C32.1413 20.3355 32.8786 20.2922 33.1388 18.4855V17.8062L32.9653 17.8785C32.3437 17.4305 32.6039 17.2281 32.7196 16.9824L32.7918 16.9102C32.6617 16.7367 32.069 15.7395 30.9848 17.5895C30.9125 15.6383 31.057 14.4242 31.4185 14.0051C31.5919 13.6438 32.0979 13.8316 33.0521 14.6121C33.9773 15.3926 34.6857 16.9246 35.2495 19.3094C36.1891 23.3563 32.3871 23.0961 31.3606 20.0176ZM24.8552 19.2227C25.0865 19.266 26.1996 19.0637 26.1996 17.0836H26.1273C25.3467 16.9246 25.8093 16.2887 26.0261 16.2309C25.7804 15.7973 25.5346 15.6238 25.2455 15.5516C24.0745 15.5516 23.5685 17.3871 24.0745 18.6156C24.1477 18.7719 24.257 18.9085 24.3936 19.0141C24.5301 19.1196 24.6898 19.1911 24.8595 19.2227H24.8552ZM30.6523 11.9816L30.2908 12.0539L30.3631 12.4875C31.6757 12.4158 32.9822 12.7111 34.1363 13.3402C33.7749 12.5453 32.6906 11.2734 30.0451 11.2734L30.1174 11.6348L30.6523 11.9816ZM20.2724 19.1215C23.4095 21.5496 22.6578 22.2145 26.9947 22.5324L26.5755 21.8531C27.7914 20.818 28.5584 19.3518 28.7151 17.7629C28.9608 15.4504 28.5416 13.4992 27.4429 11.7937L29.3223 10.6953C29.3274 10.6516 29.3236 10.6073 29.3112 10.5651C29.2988 10.5229 29.278 10.4836 29.25 10.4496C28.9301 10.3241 28.5838 10.2808 28.2428 10.3237C27.9019 10.3667 27.5771 10.4944 27.2983 10.6953C25.4623 11.6637 23.2505 13.716 23.1059 13.9328C22.8601 14.1785 22.6144 14.7855 22.3253 15.884C22.0498 17.0002 21.909 18.1453 21.906 19.2949C21.2266 18.1387 20.3881 18.3699 19.0292 18.4422L20.0556 19.5406C17.6702 19.5406 16.6872 21.7664 16.6438 21.8531C17.6269 21.8531 17.3088 20.7547 20.9808 20.0754C20.3592 19.1648 20.5037 19.3527 20.2724 19.1215ZM22.9758 16.4187C23.1493 15.3203 23.4673 14.5398 23.901 13.9328C24.6817 13.0078 25.4334 12.473 26.2141 12.2273C26.8213 11.9816 27.2405 12.4008 27.6742 13.5715C28.0346 14.755 28.1815 15.9932 28.1079 17.2281C28.0356 18.5723 27.6164 19.7141 26.8935 20.5668C26.4743 21.0582 26.1129 21.4195 25.9683 21.6652C25.4232 21.7202 24.8729 21.6959 24.3347 21.593L23.3083 21.1016L22.5276 20.1766C22.6433 18.7313 22.7156 17.4594 22.9758 16.4187ZM29.0476 24.527C24.0167 26.6082 24.0311 26.5504 23.8287 26.5938C20.8218 27.273 21.082 23.0672 21.0964 23.0094L21.9494 22.8359L21.8771 22.4746C18.9569 22.0988 17.3956 23.0816 17.1787 23.1828C17.251 23.2551 17.6124 23.6742 18.0316 24.527C18.6388 23.602 19.3038 23.0672 20.229 22.9949C19.9784 24.6183 20.0621 26.2757 20.4748 27.8656C20.4893 27.9379 20.8507 30.3805 24.4504 31.3488C26.084 31.7824 28.3537 31.5223 31.5197 30.5684L30.1896 30.6406C29.5825 28.5016 29.2644 27.0562 29.3367 26.377C30.9703 25.1051 32.5027 24.7437 33.7749 25.2785H34.1363L32.4304 24.1801L31.404 24.2523C30.5511 24.4258 29.6258 24.8594 28.5994 25.4664L29.0476 24.527Z" fill="#0A0A0A"/>
</svg>
