<svg width="57" height="67" viewBox="0 0 57 67" fill="none" xmlns="http://www.w3.org/2000/svg">
<path id="Vector" d="M28.5 66.5C34.3633 66.5 39.8109 64.7484 44.3531 61.7203H12.6617C17.1891 64.7484 22.6367 66.5 28.5 66.5ZM15.2742 37.8367V35.9961H0V37.8367C0 38.2078 0 38.5789 0.0148437 38.9352H15.3187C15.2891 38.5789 15.2742 38.2078 15.2742 37.8367ZM18.3172 46.2977H1.26172C1.64766 47.5594 2.12266 48.7914 2.68672 49.9789H23.2156C21.3008 49.1328 19.6383 47.8711 18.3172 46.2977ZM15.6898 41.1469H0.192969C0.326562 42.275 0.519531 43.3734 0.771875 44.457H17.0555C16.4617 43.4328 15.9867 42.3195 15.6898 41.1469ZM15.2742 30.8602H0V33.4281H15.2742V30.8602ZM15.2742 5.15078H0V5.87812H15.2742V5.15078ZM15.2742 0H0V0.371094H15.2742V0ZM15.2742 10.2867H0V11.3852H15.2742V10.2867ZM15.2742 25.7242H0V27.9211H15.2742V25.7242ZM15.2742 15.4375H0V16.907H15.2742V15.4375ZM15.2742 20.5734H0V22.4141H15.2742V20.5734ZM39.9445 44.457H56.2281C56.4953 43.3734 56.6883 42.275 56.807 41.1469H41.3102C40.9984 42.3195 40.5383 43.4328 39.9445 44.457ZM41.7258 16.8922H57V15.4375H41.7258V16.8922ZM41.7258 22.4141H57V20.5734H41.7258V22.4141ZM41.7258 11.3852H57V10.2867H41.7258V11.3852ZM41.7258 0V0.371094H57V0H41.7258ZM11.593 60.993H45.3922C47.1437 59.7016 48.7617 58.232 50.1719 56.5844H6.66484C8.08984 58.2172 9.84141 59.7016 11.593 60.993ZM41.7258 5.87812H57V5.15078H41.7258V5.87812ZM41.7258 27.9211H57V25.7242H41.7258V27.9211ZM5.75938 55.4711H51.0773C52.0719 54.2094 52.9477 52.8586 53.7195 51.4336H3.41406C4.18594 52.8586 4.77969 54.2094 5.75938 55.4711ZM33.7844 49.9641H54.4766C55.0258 48.7766 55.3375 47.5594 55.7383 46.2828H38.668C37.3617 47.8711 35.6844 49.1328 33.7844 49.9641ZM41.7258 37.8367C41.7258 38.2078 41.7109 38.5789 41.6664 38.9352H56.9703C56.9852 38.5641 57 38.2078 57 37.8367V35.9961H41.7258V37.8367ZM41.7258 33.4281H57V30.8602H41.7258V33.4281Z" fill="#0A0A0A"/>
</svg>
